#Comment line ignore any data following # character
#Hierarchical Translation and Rotation (.htr) file
[Header]		#Header keywords are followed by a single value
FileType htr		#Single word string
DataType HTRS		#Translation followed by rotation and scale data
FileVersion 1		#integer
NumSegments 15		#integer
NumFrames 9		#integer
DataFrameRate 60		#integer, data frame rate in this file
EulerRotationOrder ZYX
CalibrationUnits mm
RotationUnits Degrees
GlobalAxisofGravity Y
BoneLengthAxis Y
ScaleFactor 1.000000
[SegmentNames&Hierarchy]
#CHILD	PARENT
1cou	1buste
1buste	1bassin
1brasG	1buste
1brasD	1buste
1avbrasG	1brasG
1avbrasD	1brasD
1mainG	1avbrasG
1mainD	1avbrasD
1bassin	GLOBAL
1cuisseG	1bassin
1cuisseD	1bassin
1moletG	1cuisseG
1moletD	1cuisseD
1piedG	1moletG
1piedD	1moletD
[BasePosition]
#SegmentName Tx, Ty, Tz, Rx, Ry, Rz, BoneLength
1cou	0.000002	394.639771	0.000003	47.447697	-6.500580	2.097482	232.574402
1buste	0.331046	98.159424	9.920088	5.813737	-6.959647	-0.900074	394.639771
1brasG	222.293304	333.760773	-3.143221	-5.521868	-4.449825	-174.025208	338.016541
1brasD	-186.675308	347.235016	-30.968008	-5.508482	16.777920	169.824814	318.101379
1avbrasG	0.000004	338.016571	-0.000002	34.403133	17.432653	23.106703	253.821075
1avbrasD	-0.000007	318.101410	-0.000013	32.381824	-10.529597	-11.344105	276.946075
1mainG	0.000006	253.821091	-0.000001	-3.773718	-0.485368	-1.748444	73.639816
1mainD	-0.000031	276.946106	-0.000010	-3.909555	0.199285	0.225476	80.942635
1bassin	396.031860	1037.839600	833.112305	178.297836	19.764000	-179.799622	97.859962
1cuisseG	108.625954	-0.934603	-40.474510	172.403458	-4.353497	-0.165467	517.714233
1cuisseD	-106.972656	-1.326527	-48.733826	172.076172	-12.757409	2.045154	501.698334
1moletG	0.000006	517.714233	-0.000009	157.872192	5.331374	176.676331	488.075745
1moletD	-0.000005	501.698303	0.000003	156.316269	3.295414	-177.725830	511.880615
1piedG	0.000002	488.075745	-0.000006	99.880898	-0.000004	0.000000	242.425140
1piedD	-0.000009	511.880646	-0.000013	102.622849	0.000000	0.000000	237.138092
#Beginning of Data. Separated by tabs
[1cou]
#Fr	Tx	Ty	Tz	Rx	Ry	Rz	SF
62	0.000026	-45.156647	0.000003	-20.801647	-19.055702	38.313881	0.980983
63	0.000011	-45.558258	-0.000010	-20.525970	-20.180286	39.572334	0.976041
64	0.000001	-46.029816	0.000018	-20.606201	-21.074871	40.794373	0.970921
65	-0.000006	-46.326416	0.000014	-20.848246	-21.677156	41.487572	0.969037
66	-0.000010	-46.084656	-0.000008	-21.617790	-22.351938	42.896011	0.964636
67	-0.000007	-45.540405	-0.000008	-22.831608	-23.303343	44.512913	0.958763
68	0.000019	-45.076263	0.000007	-24.120914	-24.225470	45.863823	0.954591
69	0.000019	-43.775146	0.000004	-25.710743	-25.568075	47.560196	0.945962
70	-0.000004	-43.006042	-0.000001	-26.912977	-26.748922	48.434517	0.939812
[1buste]
#Fr	Tx	Ty	Tz	Rx	Ry	Rz	SF
62	5.992085	-11.036980	-8.088675	-5.006341	1.273094	-3.496540	0.885575
63	5.972855	-11.120750	-9.117459	-5.674356	0.821432	-3.380125	0.884557
64	6.428026	-11.270821	-9.434618	-5.915470	0.424864	-3.623646	0.883362
65	6.831403	-11.376160	-9.905836	-6.254100	-0.404478	-3.769380	0.882611
66	7.426527	-11.367233	-10.236876	-6.516716	-1.468248	-4.010458	0.883223
67	8.547097	-11.337448	-10.054879	-6.485023	-2.665608	-4.619887	0.884603
68	10.165742	-11.402664	-9.422713	-6.199847	-4.134547	-5.580396	0.885779
69	11.303035	-11.221970	-9.112871	-6.094370	-5.835144	-6.152489	0.889076
70	12.207457	-11.158600	-8.680558	-5.899998	-7.735956	-6.586431	0.891025
[1brasG]
#Fr	Tx	Ty	Tz	Rx	Ry	Rz	SF
62	-68.965622	-12.231842	57.778908	110.900978	-12.557595	40.645977	0.876144
63	-68.953354	-12.492981	58.551376	111.505562	-12.788931	40.190887	0.872368
64	-69.621704	-12.501007	59.039886	111.722916	-12.749610	39.823414	0.870463
65	-70.669342	-12.062408	58.715393	111.361336	-12.186630	39.539608	0.865696
66	-72.281189	-10.843475	58.015205	110.719162	-11.015800	39.470451	0.862065
67	-74.146088	-8.595123	57.179550	110.159279	-9.137021	39.713207	0.861298
68	-75.897461	-6.345520	56.731186	109.471939	-6.388642	40.291149	0.862594
69	-77.366089	-4.657257	56.516762	108.892914	-2.189767	40.978294	0.868639
70	-77.264679	-4.485352	56.956268	108.542244	2.711520	42.096142	0.873679
[1brasD]
#Fr	Tx	Ty	Tz	Rx	Ry	Rz	SF
62	6.570084	-35.294495	41.768379	71.215782	21.254278	-13.599976	0.869136
63	6.170227	-36.443542	39.144745	65.581207	23.416586	-15.370457	0.864770
64	4.599335	-39.084564	37.431572	59.941826	25.319666	-16.161465	0.856122
65	3.547058	-42.426971	36.796257	54.187561	27.054443	-16.889507	0.846033
66	2.338379	-44.679504	34.637062	48.998535	28.498516	-16.623775	0.838309
67	1.176895	-46.805573	31.683861	44.183552	29.658190	-15.833229	0.829671
68	0.893738	-48.036682	28.140919	38.994701	30.087461	-15.633054	0.821713
69	0.805923	-47.597443	23.168461	32.586742	28.916250	-16.916307	0.818813
70	-0.644531	-48.606201	20.273045	24.720493	26.726276	-18.501982	0.814294
[1avbrasG]
#Fr	Tx	Ty	Tz	Rx	Ry	Rz	SF
62	-0.000003	-41.865234	-0.000000	23.025331	-2.938084	13.400204	1.146542
63	-0.000009	-43.141815	0.000003	23.203972	-3.147354	13.516119	1.147399
64	-0.000036	-43.785736	0.000011	24.015162	-3.891347	13.587339	1.148511
65	-0.000012	-45.397125	0.000005	25.044422	-4.896615	13.592054	1.151133
66	-0.000005	-46.624329	0.000006	26.493139	-6.079969	13.690891	1.153433
67	-0.000001	-46.883606	0.000019	27.961365	-7.397306	13.637300	1.151197
68	0.000002	-46.445526	0.000010	29.621601	-8.934244	13.344208	1.147441
69	0.000006	-44.402130	0.000055	31.150482	-10.075559	13.325524	1.141891
70	-0.000009	-42.698608	0.000004	32.044949	-10.778795	13.296152	1.136998
[1avbrasD]
#Fr	Tx	Ty	Tz	Rx	Ry	Rz	SF
62	0.000014	-41.628082	0.000008	31.403824	-2.368887	-11.982332	1.009271
63	0.000013	-43.016815	0.000016	30.566319	-6.184398	-15.284117	1.004454
64	0.000030	-45.767761	0.000000	29.520512	-9.558365	-17.475630	1.001052
65	0.000019	-48.977295	0.000012	27.951738	-12.063350	-18.241104	0.997752
66	0.000008	-51.434265	0.000003	25.672306	-14.468542	-18.110479	0.991898
67	-0.000005	-54.181915	0.000031	23.065544	-15.953198	-16.976313	0.991175
68	0.000007	-56.713379	0.000018	20.654018	-17.039742	-15.755607	0.996433
69	-0.000009	-57.635712	0.000019	20.015463	-20.218105	-16.780413	0.997635
70	0.000027	-59.073425	0.000015	24.363489	-19.344080	-20.224424	0.990806
[1mainG]
#Fr	Tx	Ty	Tz	Rx	Ry	Rz	SF
62	-0.000026	37.195328	-0.000002	1.627639	0.305915	1.091947	1.117917
63	-0.000034	37.412918	0.000019	1.644747	0.320444	1.116787	1.118509
64	-0.000011	37.695114	-0.000007	1.685255	0.331273	1.166058	1.118991
65	-0.000005	38.360733	0.000042	1.732358	0.341612	1.224480	1.120990
66	-0.000010	38.944626	-0.000007	1.797989	0.350494	1.295473	1.122431
67	0.000006	38.377060	-0.000013	1.856310	0.355427	1.369220	1.119224
68	0.000010	37.423599	-0.000039	1.924034	0.358381	1.449688	1.114376
69	-0.000003	36.014786	-0.000053	1.997982	0.360167	1.523663	1.107678
70	0.000012	34.772995	0.000017	2.041126	0.362721	1.570687	1.102071
[1mainD]
#Fr	Tx	Ty	Tz	Rx	Ry	Rz	SF
62	0.000022	2.567413	0.000008	1.434359	-0.196627	-0.160777	0.975923
63	0.000021	1.233490	-0.000019	1.365296	-0.226857	0.025377	0.971881
64	0.000052	0.291412	0.000025	1.293104	-0.240915	0.225548	0.969628
65	0.000023	-0.622711	-0.000008	1.207544	-0.238576	0.405847	0.967866
66	0.000043	-2.243958	0.000032	1.110434	-0.244231	0.600066	0.963859
67	0.000020	-2.444000	0.000004	1.015860	-0.230937	0.765665	0.965505
68	0.000044	-0.987762	0.000004	0.959143	-0.212212	0.893475	0.973058
69	-0.000010	-0.655029	0.000018	0.993195	-0.166541	1.086734	0.975225
70	0.000000	-2.546387	-0.000006	1.103926	-0.125608	0.898713	0.964447
[1bassin]
#Fr	Tx	Ty	Tz	Rx	Ry	Rz	SF
62	-428.291412	-477.277832	-658.410400	-120.112267	-45.712643	130.577896	0.864456
63	-443.569763	-498.252747	-625.751770	-119.510757	-45.927383	129.304077	0.862609
64	-459.948669	-521.521973	-593.950256	-119.077393	-45.781960	127.942268	0.858794
65	-476.216614	-547.294678	-562.764648	-118.186798	-45.659302	126.270866	0.857597
66	-493.630310	-575.328857	-532.571777	-116.781662	-45.464802	124.193756	0.856660
67	-512.857117	-605.252014	-502.803711	-115.140404	-44.968788	121.718155	0.852525
68	-533.054016	-636.316284	-472.860260	-113.090202	-44.178112	118.432350	0.847109
69	-552.700806	-668.914551	-442.795471	-110.303734	-43.599213	114.332733	0.844740
70	-572.576416	-701.438965	-413.088287	-107.143761	-42.809963	109.560585	0.844617
[1cuisseG]
#Fr	Tx	Ty	Tz	Rx	Ry	Rz	SF
62	-14.141449	2.419883	-13.365387	-6.192656	-17.187183	-30.765770	0.972840
63	-14.412132	2.578365	-13.349579	-5.082235	-16.256201	-32.252071	0.966737
64	-15.015984	2.753700	-13.853149	-4.100855	-16.151028	-33.421383	0.962562
65	-15.104309	2.944792	-13.774284	-3.613797	-15.670002	-34.401417	0.957496
66	-15.220520	3.166416	-13.756668	-3.954792	-15.375977	-35.067238	0.953381
67	-15.954086	3.447772	-14.409054	-4.570193	-15.988134	-35.441906	0.951902
68	-16.999367	3.784679	-15.262627	-5.211077	-17.683599	-35.478104	0.953686
69	-17.626831	4.039506	-15.606709	-6.157055	-19.827406	-35.600868	0.953699
70	-18.005379	4.202763	-15.964668	-7.257879	-22.641472	-35.170925	0.955093
[1cuisseD]
#Fr	Tx	Ty	Tz	Rx	Ry	Rz	SF
62	8.164352	-0.709329	16.536320	-43.528164	-12.267961	-9.779593	1.078894
63	8.377327	-0.605022	16.829771	-42.651608	-11.775034	-9.390321	1.078535
64	8.665802	-0.711842	17.901163	-41.696716	-11.599420	-9.447049	1.074959
65	8.794655	-0.787491	17.772293	-40.968082	-11.480939	-10.357162	1.069787
66	8.909912	-0.932841	17.791338	-40.447243	-11.549143	-12.055292	1.063051
67	9.251472	-1.287848	19.103876	-39.728497	-12.295317	-13.874861	1.056707
68	9.727814	-1.829997	21.111719	-38.741226	-13.194107	-15.636009	1.050433
69	10.044258	-2.193677	22.334433	-37.821815	-13.986526	-17.519608	1.046112
70	10.099083	-2.491747	23.609915	-36.997601	-14.660007	-18.956009	1.045889
[1moletG]
#Fr	Tx	Ty	Tz	Rx	Ry	Rz	SF
62	-0.000003	-14.061340	0.000022	-20.276495	-32.763470	6.755821	0.955739
63	-0.000016	-17.220612	0.000038	-23.318651	-33.559315	8.456852	0.956747
64	-0.000006	-19.381897	-0.000009	-27.199762	-34.338005	10.867227	0.955489
65	-0.000013	-22.004761	0.000026	-31.540752	-35.126720	13.129347	0.950632
66	0.000035	-24.135162	0.000028	-36.236115	-34.524033	15.005520	0.949033
67	-0.000019	-24.901001	0.000018	-39.531864	-31.903200	15.218634	0.944091
68	0.000016	-23.977173	0.000031	-41.800037	-28.338829	13.861411	0.939018
69	0.000012	-23.970978	0.000030	-43.433468	-26.445835	12.253555	0.935155
70	-0.000006	-23.248993	-0.000005	-44.306873	-25.532408	11.510172	0.931288
[1moletD]
#Fr	Tx	Ty	Tz	Rx	Ry	Rz	SF
62	0.000005	39.580872	0.000008	-81.235123	6.458364	24.699982	0.870585
63	0.000005	39.400818	0.000035	-82.121941	4.834330	29.744509	0.861578
64	-0.000019	37.606628	0.000017	-83.722343	3.073515	35.652031	0.852092
65	0.000068	35.011963	-0.000020	-86.187027	2.752920	37.966888	0.844260
66	-0.000008	31.632446	-0.000001	-88.977592	3.896524	35.095131	0.839329
67	-0.000031	28.450012	-0.000013	-90.964943	5.032432	30.652924	0.835308
68	-0.000003	25.302307	0.000003	-91.338585	5.418786	29.876118	0.833833
69	-0.000020	23.134338	-0.000007	-89.809341	5.637427	31.536430	0.835784
70	0.000030	23.022217	-0.000019	-87.583725	5.987770	30.049898	0.839395
[1piedG]
#Fr	Tx	Ty	Tz	Rx	Ry	Rz	SF
62	0.000014	-21.602783	-0.000003	11.740633	-0.000001	-0.000001	1.031321
63	0.000013	-21.110809	-0.000024	11.831663	-0.000002	-0.000004	1.032949
64	0.000037	-21.724945	-0.000007	11.724802	-0.000002	-0.000007	1.034907
65	-0.000010	-24.095276	-0.000008	11.462523	-0.000000	-0.000003	1.032212
66	-0.000047	-24.875793	0.000071	11.529677	0.000000	-0.000001	1.035509
67	0.000018	-27.287689	-0.000006	11.565218	0.000000	-0.000001	1.029284
68	0.000024	-29.763885	0.000028	11.745901	-0.000001	-0.000002	1.029774
69	-0.000034	-31.649139	0.000048	11.459933	-0.000001	-0.000004	1.031727
70	-0.000015	-33.536469	-0.000009	10.494425	0.000001	-0.000003	1.029586
[1piedD]
#Fr	Tx	Ty	Tz	Rx	Ry	Rz	SF
62	-0.000001	-66.244965	0.000040	19.783167	-0.000000	-0.000001	0.990988
63	0.000040	-70.855469	0.000013	17.066660	0.000000	-0.000001	1.003359
64	0.000006	-75.711334	0.000015	17.028982	0.000000	-0.000000	0.996492
65	0.000021	-79.720093	-0.000012	17.121885	-0.000000	-0.000001	0.989738
66	0.000029	-82.244171	0.000014	16.102810	-0.000000	0.000000	0.998742
67	-0.000033	-84.302521	0.000012	14.127252	-0.000000	-0.000001	1.000024
68	0.000001	-85.057495	0.000015	12.806423	0.000000	0.000000	1.008378
69	-0.000002	-84.059113	0.000016	11.298421	-0.000000	-0.000000	1.004304
70	0.000021	-82.210388	0.000018	10.071278	0.000000	0.000001	1.018137
[EndOfFile]
